Simulation
nRows=46
nColumns=15
endheader
time  TH_x TH_y TH_z SC_y  SC_z  SC_x  AC_y  AC_z  AC_x  GH_y  GH_z  GH_yy  EL_x  PS_y
0.0  0.000000  0.000000  0.000000  -27.17976227859824  4.1132310876011635  -1.6581362992289796  40.48536993622692  8.533358742459443  2.247898916960012  152.60482576530833  3.5177377887435384  -105.874442636244  20.526943735575806  120.000000
0.040769230769230766  0.000000  0.000000  0.000000  -26.549884452103484  4.531370930543996  -1.6225217088748891  40.135950247796494  8.784727692001164  2.256502503815188  157.7372437196601  3.2648254552944627  -111.04256124264032  20.739867131090843  120.000000
0.08153846153846153  0.000000  0.000000  0.000000  -26.0031506227281  4.770927619308422  -1.574091338565124  39.843374443357675  8.900584286541687  2.2540274994826954  161.9953519920343  3.163747942658176  -115.30324347711813  20.95475539026889  120.000000
0.1223076923076923  0.000000  0.000000  0.000000  -25.556276252548038  4.9055576516926065  -1.5194425510646625  39.63739562174194  8.922272473815829  2.2188919337757227  164.27726288100047  3.189724213151338  -117.56418304241164  21.14778775869026  120.000000
0.16307692307692306  0.000000  0.000000  0.000000  -25.224227700464308  4.979488626879546  -1.4626992157512355  39.50668329697805  8.88051732462595  2.1488800473264593  164.6098414306141  3.3046563529245434  -117.88157980201787  21.288610624071723  120.000000
0.20384615384615384  0.000000  0.000000  0.000000  -24.9927519346025  5.017213760917022  -1.4065433034604615  39.42634864022081  8.796222442561808  2.061809307196894  163.82020177920583  3.462565512488115  -117.10777860145136  21.344455833022117  120.000000
0.2446153846153846  0.000000  0.000000  0.000000  -24.8375733831545  5.029233170010008  -1.3540934469963912  39.37863969822395  8.681462289781269  1.97304165877239  162.5486802325158  3.6191070184724037  -115.9143554204559  21.291950820420713  120.000000
0.28538461538461535  0.000000  0.000000  0.000000  -24.733582349309028  5.021678306571656  -1.3086447507951346  39.362528788965285  8.539598407136722  1.8929244501254556  161.0606674454327  3.730273569024015  -114.59219072630913  21.11502602268225  120.000000
0.3261538461538461  0.000000  0.000000  0.000000  -24.658554134267973  5.000238833393363  -1.2727468230330254  39.372671660023286  8.368584057767883  1.830485353007054  159.43440805415597  3.755121289182417  -113.24284895131395  20.80389781106989  120.000000
0.3669230769230769  0.000000  0.000000  0.000000  -24.601242651384478  4.973723495640129  -1.2488875499531245  39.40427758105317  8.16590741854105  1.7908956672419976  157.554812339047  3.656169943468165  -111.77352776434935  20.353024022109725  120.000000
0.4076923076923077  0.000000  0.000000  0.000000  -24.560637944767905  4.9552373394013545  -1.2379901906987054  39.450453736223594  7.931590101891515  1.7773856986421996  155.16513344559425  3.4009669964308546  -109.95313479039726  19.764888540237664  120.000000
0.4484615384615384  0.000000  0.000000  0.000000  -24.545960181273717  4.958869098202357  -1.240737621953279  39.506475075255224  7.67053564398366  1.7982430559443103  151.7684624555272  2.9616967231515936  -107.31857781581483  19.052121432751314  120.000000
0.4892307692307692  0.000000  0.000000  0.000000  -24.57401006303348  4.994908566826262  -1.2559742631597335  39.580409447832665  7.39434343444254  1.8684335342635392  146.10187179169318  2.317485726558568  -102.65670535500182  18.242482471769723  120.000000
0.5299999999999999  0.000000  0.000000  0.000000  -24.668213841407496  5.0635980167241215  -1.273356797445794  39.69728452109476  7.118562719295287  2.0045826960242645  133.214343580602  1.4705133245000408  -91.08583266956481  17.383733427086568  120.000000
0.5707692307692307  0.000000  0.000000  0.000000  -24.857019784797966  5.1540549476410895  -1.2730151933220955  39.89932699860825  6.862682535087956  2.2205107435287657  77.21739084175447  0.7144135824750789  -36.80229929410194  16.544784723206362  120.000000
0.6115384615384615  0.000000  0.000000  0.000000  -25.168073276118974  5.249152652940251  -1.2307243163324182  40.2322707791773  6.64862214406635  2.525494786583742  4.2926817013192515  1.5815510111933995  33.93013259558867  15.809638348008844  120.000000
0.6523076923076923  0.000000  0.000000  0.000000  -25.619666951607734  5.3325145924843245  -1.1244006328681495  40.73002680981254  6.4993568260013355  2.919875217482375  -12.34487719452005  3.3109241032640315  47.843400635596396  15.259074108468395  120.000000
0.693076923076923  0.000000  0.000000  0.000000  -26.21102066609932  5.396367166622806  -0.9413768318823235  41.39917471934179  6.435956974454437  3.3937435403705525  -19.562919849638355  5.397758169734041  51.8133655132063  14.945868683794407  120.000000
0.7338461538461538  0.000000  0.000000  0.000000  -26.91961829997839  5.445229248861921  -0.6822912216727055  42.21291174352911  6.476087644885208  3.9273116750067967  -24.175570359102675  7.742731576021353  52.74183227836934  14.874683052288033  120.000000
0.7746153846153846  0.000000  0.000000  0.000000  -27.709156990542898  5.493001696252837  -0.359432212995573  43.11532123606331  6.6321459544409676  4.494397910919506  -27.58085113706496  10.254349805642725  52.18972114490808  15.000593092769735  120.000000
0.8153846153846154  0.000000  0.000000  0.000000  -28.542018925316487  5.557221589006821  0.009669248058784741  44.03776675251004  6.908457587150053  5.0668233469014154  -30.179013530298363  12.835826870650457  50.76201528211514  15.24835869452007  120.000000
0.856153846153846  0.000000  0.000000  0.000000  -29.387626546041222  5.6534499099783755  0.40899006479704236  44.91649702760753  7.297438763262288  5.620442137942256  -32.11059741257197  15.399925141530337  48.798824561937465  15.540362379587163  120.000000
0.8969230769230768  0.000000  0.000000  0.000000  -30.220667783171344  5.792091192922511  0.8270748007587031  45.705529297917366  7.779282195494909  6.139873903431018  -33.468249049646715  17.88282437773399  46.5469938970296  15.819327134955758  120.000000
0.9376923076923076  0.000000  0.000000  0.000000  -31.01696247670672  5.977892625048582  1.256833875396317  46.38103242520557  8.32448773266289  6.61998449850788  -34.364973413244634  20.250624135356315  44.20819953153313  16.057887119100602  120.000000
0.9784615384615384  0.000000  0.000000  0.000000  -31.755275146543795  6.2107290416433605  1.69432523873998  46.94101890702992  8.899795715599176  7.063581852448294  -34.93866140987153  22.495509659121048  41.94159744952486  16.254635810425558  120.000000
1.0192307692307692  0.000000  0.000000  0.000000  -32.42347397297378  6.487204170513455  2.139315239210163  47.39999484301088  9.475605786786176  7.479010553395877  -35.33334218376357  24.62491248007353  39.856186188093076  16.42493844677874  120.000000
1.0599999999999998  0.000000  0.000000  0.000000  -33.02713078651063  6.7995633469483305  2.5970349347401878  47.784144263075696  10.033019718356337  7.875908916002262  -35.66939055886567  26.650360735317935  37.994152521642135  16.5929626758996  120.000000
1.1007692307692307  0.000000  0.000000  0.000000  -33.59294355298919  7.1338427808002605  3.0797718267362035  48.127309587134135  10.568152630866926  8.261440629858749  -36.02594225466588  28.58121205017026  36.32995537431208  16.785959211955593  120.000000
1.1415384615384614  0.000000  0.000000  0.000000  -34.16109266336939  7.47131847843095  3.6054501800039684  48.466340394389405  11.090126754685926  8.639266632184722  -36.44282625649787  30.424578250301842  34.78968665820013  17.029945486520983  120.000000
1.1823076923076923  0.000000  0.000000  0.000000  -34.77366466143456  7.790321982388972  4.194455452346098  48.83666433856666  11.616486518573957  9.009875235752327  -36.932175277169975  32.187917676171075  33.281196305055644  17.346199158474555  120.000000
1.223076923076923  0.000000  0.000000  0.000000  -35.4624793006461  8.069223284671953  4.864381688553034  49.26761152100092  12.166959786921106  9.371382004281816  -37.49081625498895  33.88094623045262  31.72252973433827  17.749279937970748  120.000000
1.2638461538461538  0.000000  0.000000  0.000000  -36.240940723928695  8.290052810971128  5.625240060601788  49.77750631647029  12.757999265389811  9.720997248269157  -38.108827283325866  35.513947539388354  30.062887761552933  18.245784105311373  120.000000
1.3046153846153845  0.000000  0.000000  0.000000  -37.100356852757784  8.442060907379966  6.475404275248698  50.368946993253374  13.39870281991779  10.05597482148845  -38.77268320750385  37.09368854591705  28.292981723552433  18.83259789154388  120.000000
1.3453846153846152  0.000000  0.000000  0.000000  -38.00855519312559  8.525467533824195  7.399364123165171  51.024604464396326  14.088149486553823  10.374409836196014  -39.46716385600581  38.619809327029984  26.451060087448248  19.492380839758642  120.000000
1.386153846153846  0.000000  0.000000  0.000000  -38.91452855967518  8.551556531195457  8.368707498774892  51.70829447077263  14.815422444898743  10.675507171316536  -40.17544530677531  40.08436577514626  24.620911289681185  20.1880754532407  120.000000
1.4269230769230767  0.000000  0.000000  0.000000  -39.75859942007103  8.54053897955348  9.345815058490622  52.36963177157307  15.560430009515352  10.959831476287894  -40.876234226761234  41.4737590695494  22.915848376257113  20.86374071544564  120.000000
1.4676923076923076  0.000000  0.000000  0.000000  -40.48559385189598  8.517554050133539  10.28991430163526  52.9534591589511  16.296213803773902  11.228887457641754  -41.54504435554717  42.77083997198844  21.45251109319376  21.456026192849695  120.000000
1.5084615384615383  0.000000  0.000000  0.000000  -41.05929925484396  8.504700664553367  11.16535282942276  53.414190103099166  16.994246286972103  11.483183272527235  -42.15830685650725  43.95537001501204  20.31980579894194  21.91327284456052  120.000000
1.5492307692307692  0.000000  0.000000  0.000000  -41.4702484674541  8.51394558837499  11.947903177690732  53.72805226030568  17.629858392090597  11.720083008583359  -42.69967897466867  45.003223844338784  19.55420377693351  22.214730894392574  120.000000
1.5899999999999999  0.000000  0.000000  0.000000  -41.733185571585686  8.544318989170511  12.62672986007881  53.89760561548914  18.186525656518644  11.932677051482747  -43.165049654646786  45.88671412369371  19.133655446990574  22.377697494056804  120.000000
1.6307692307692307  0.000000  0.000000  0.000000  -41.87738178143946  8.584384902513  13.201832557997603  53.94768970099403  18.656909902714183  12.110957795410258  -43.562217043723436  46.57847082277336  18.99253212533923  22.446838328628747  120.000000
1.6715384615384614  0.000000  0.000000  0.000000  -41.935632743049524  8.617933083193691  13.678616719285111  53.9160695264953  19.04094483465363  12.244078053778404  -43.90481005978728  47.056887864028546  19.04891127028901  22.47253433730514  120.000000
1.712307692307692  0.000000  0.000000  0.000000  -41.936913850871846  8.629011749984981  14.062313029155034  53.84363500957228  19.342130613499155  12.322334473163764  -44.20334827469713  47.31043839163855  19.231126576456358  22.490147965876982  120.000000
1.753076923076923  0.000000  0.000000  0.000000  -41.90337281580692  8.605679007868703  14.35381307182606  53.76677933867594  19.56346377440858  12.33790853642961  -44.457463349934265  47.33803470676553  19.492062616107283  22.509557785378448  120.000000
1.7938461538461536  0.000000  0.000000  0.000000  -41.85004691758431  8.542127428565143  14.548369240077166  53.711862840852085  19.704631815917814  12.285486181080097  -44.65372929109232  47.14588728348042  19.80887582070289  22.51857248827503  120.000000
1.8346153846153845  0.000000  0.000000  0.000000  -41.785232610715696  8.439685385810769  14.63635178564947  53.69159730515297  19.760623410802236  12.162661450225922  -44.76825424597401  46.74274043768704  20.17096878978218  22.495287589322817  120.000000
